<!-- SVG representation of NUST campus building -->
<svg width="800" height="600" viewBox="0 0 800 600" xmlns="http://www.w3.org/2000/svg">
  <!-- Sky background -->
  <rect width="800" height="400" fill="#87CEEB"/>
  
  <!-- Main building structure -->
  <!-- Left wing -->
  <rect x="50" y="200" width="200" height="400" fill="#B22222"/>
  
  <!-- Central glass tower -->
  <rect x="250" y="100" width="300" height="500" fill="#4682B4"/>
  
  <!-- Right wing -->
  <rect x="550" y="200" width="200" height="400" fill="#B22222"/>
  
  <!-- Windows on left wing -->
  <rect x="70" y="220" width="20" height="15" fill="white"/>
  <rect x="100" y="220" width="20" height="15" fill="white"/>
  <rect x="130" y="220" width="20" height="15" fill="white"/>
  <rect x="160" y="220" width="20" height="15" fill="white"/>
  <rect x="190" y="220" width="20" height="15" fill="white"/>
  <rect x="220" y="220" width="20" height="15" fill="white"/>
  
  <!-- Repeat windows pattern -->
  <rect x="70" y="260" width="20" height="15" fill="white"/>
  <rect x="100" y="260" width="20" height="15" fill="white"/>
  <rect x="130" y="260" width="20" height="15" fill="white"/>
  <rect x="160" y="260" width="20" height="15" fill="white"/>
  <rect x="190" y="260" width="20" height="15" fill="white"/>
  <rect x="220" y="260" width="20" height="15" fill="white"/>
  
  <!-- Central tower windows -->
  <rect x="270" y="120" width="25" height="20" fill="white" opacity="0.9"/>
  <rect x="310" y="120" width="25" height="20" fill="white" opacity="0.9"/>
  <rect x="350" y="120" width="25" height="20" fill="white" opacity="0.9"/>
  <rect x="390" y="120" width="25" height="20" fill="white" opacity="0.9"/>
  <rect x="430" y="120" width="25" height="20" fill="white" opacity="0.9"/>
  <rect x="470" y="120" width="25" height="20" fill="white" opacity="0.9"/>
  <rect x="510" y="120" width="25" height="20" fill="white" opacity="0.9"/>
  
  <!-- More rows of windows -->
  <rect x="270" y="160" width="25" height="20" fill="white" opacity="0.9"/>
  <rect x="310" y="160" width="25" height="20" fill="white" opacity="0.9"/>
  <rect x="350" y="160" width="25" height="20" fill="white" opacity="0.9"/>
  <rect x="390" y="160" width="25" height="20" fill="white" opacity="0.9"/>
  <rect x="430" y="160" width="25" height="20" fill="white" opacity="0.9"/>
  <rect x="470" y="160" width="25" height="20" fill="white" opacity="0.9"/>
  <rect x="510" y="160" width="25" height="20" fill="white" opacity="0.9"/>
</svg>
